 <svg version="1.0" xmlns="http://www.w3.org/2000/svg" width="700.000000pt" height="373.000000pt" viewBox="0 0 700.000000 373.000000" preserveAspectRatio="xMidYMid meet">
<metadata>
Created by potrace 1.12, written by Peter Selinger 2001-2015
</metadata>
<g transform="translate(0.000000,373.000000) scale(0.100000,-0.100000)" fill="#000000" stroke="none">
<path d="M0 1865 l0 -1865 3500 0 3500 0 0 1865 0 1865 -3500 0 -3500 0 0
-1865z m2465 1343 c75 -86 108 -118 121 -118 7 0 25 16 40 35 26 35 59 45 79
26 12 -12 237 -17 254 -7 8 5 10 18 7 32 -8 32 3 74 19 74 7 0 42 -34 76 -75
79 -94 93 -99 132 -51 23 29 36 36 63 36 23 0 52 12 87 35 86 58 154 48 195
-30 6 -11 19 -20 29 -20 11 0 22 -12 28 -32 6 -18 14 -35 17 -39 4 -3 33 7 65
22 49 25 70 29 138 29 56 0 90 -6 114 -18 44 -22 61 -22 61 3 0 14 7 20 23 21
12 1 80 4 152 8 l129 6 -3 53 c-4 72 13 69 90 -19 88 -98 93 -100 139 -50 42
45 46 45 114 3 25 -16 47 -22 62 -18 13 3 35 9 48 12 20 5 30 -3 65 -52 22
-31 41 -62 41 -68 -1 -6 -9 -27 -18 -46 -14 -29 -25 -37 -64 -47 -26 -6 -52
-14 -57 -18 -6 -3 -22 2 -36 11 -38 25 -46 8 -29 -56 10 -38 14 -86 11 -155
-4 -107 -21 -171 -64 -239 l-26 -40 41 -165 c80 -319 84 -341 71 -357 -9 -12
-63 -14 -308 -13 -324 0 -378 5 -373 32 3 18 -32 25 -42 8 -3 -4 -27 -14 -53
-21 -27 -7 -52 -16 -56 -20 -9 -8 48 -72 199 -229 58 -59 87 -82 98 -78 9 4
16 15 16 26 0 34 51 61 113 61 59 0 51 -5 134 86 17 18 32 24 66 24 23 0 48
-5 54 -11 9 -9 23 -9 55 -1 24 6 63 14 88 18 46 6 80 27 80 49 0 7 -9 20 -20
30 -11 10 -20 23 -20 29 0 5 20 52 46 104 44 91 46 93 77 90 29 -3 36 -11 74
-83 45 -87 50 -110 28 -139 -34 -45 -14 -69 65 -80 25 -4 64 -12 88 -18 32 -8
46 -8 55 1 6 6 31 11 55 11 36 0 48 -5 73 -33 73 -79 68 -77 131 -77 52 0 63
-4 89 -29 16 -16 29 -37 29 -45 0 -32 28 -11 147 114 185 193 223 265 223 415
0 121 -26 201 -134 426 -58 120 -64 139 -45 139 27 0 286 -207 340 -272 57
-69 104 -147 130 -218 21 -58 24 -81 24 -210 -1 -154 -7 -184 -63 -335 -90
-239 -190 -428 -274 -521 -19 -21 -19 -23 -1 -90 10 -38 28 -84 40 -103 22
-32 23 -44 23 -203 0 -170 -4 -195 -39 -229 -26 -24 -55 -30 -226 -39 -644
-35 -971 -35 -1675 -1 -247 12 -253 19 -248 276 3 154 5 173 24 200 12 17 25
46 29 65 3 19 12 49 18 67 9 28 8 35 -19 68 -16 20 -45 62 -65 93 -20 31 -40
57 -45 57 -11 0 -21 -46 -23 -99 -1 -31 7 -48 39 -88 45 -56 45 -57 25 -148
-24 -114 -27 -123 -57 -167 -40 -59 -59 -67 -156 -66 l-82 2 -40 -55 c-56 -75
-80 -71 -80 16 0 48 -15 60 -65 51 l-40 -6 -3 -63 c-2 -45 -7 -62 -17 -62 -8
0 -44 23 -80 50 -36 28 -74 50 -84 50 -10 0 -24 7 -31 15 -10 12 -37 15 -120
15 -122 0 -140 4 -140 31 0 37 -29 31 -92 -20 -34 -28 -68 -51 -75 -51 -7 0
-22 18 -33 39 -25 50 -37 57 -59 37 -21 -19 -82 -25 -317 -32 -182 -6 -194 -2
-194 62 0 22 -6 37 -16 41 -19 7 -70 -40 -78 -72 -8 -31 -29 -35 -197 -35
-109 0 -150 3 -164 14 -12 9 -32 12 -52 9 -24 -4 -39 0 -53 12 -19 17 -21 17
-44 -8 l-25 -27 -160 0 c-132 0 -162 3 -175 16 -12 12 -16 37 -16 110 l0 94
-76 0 c-85 0 -117 11 -107 38 12 30 70 116 94 139 13 12 38 23 54 25 l30 3 -4
180 c-2 99 -7 188 -12 197 -7 12 -25 18 -62 20 -50 3 -52 4 -64 40 -7 21 -12
68 -12 105 0 38 0 115 -1 173 -1 121 8 163 36 169 27 5 42 19 60 58 14 28 15
44 5 111 -33 233 -64 441 -81 547 -41 262 -45 305 -27 322 13 13 56 17 229 24
417 15 995 16 1010 1 6 -7 22 -108 35 -214 3 -27 10 -48 15 -48 8 0 9 46 4
144 l-7 144 80 7 c45 4 111 5 148 4 l68 -4 1 30 c3 102 12 108 69 43z m2395
-383 c0 -11 -7 -14 -25 -9 -24 6 -55 -9 -55 -27 0 -4 18 -13 40 -19 47 -13 66
-40 48 -69 -16 -26 -56 -35 -93 -21 -35 13 -24 25 22 25 53 0 52 22 -1 45 -50
21 -58 41 -29 72 21 23 93 26 93 3z m88 -18 c17 -35 37 -34 54 1 7 15 20 27
28 27 12 0 15 -15 15 -72 0 -78 -18 -106 -23 -35 -3 44 -16 56 -25 22 -7 -26
-34 -26 -42 0 -10 32 -25 13 -25 -31 0 -21 -4 -39 -10 -39 -6 0 -10 34 -10 81
0 86 12 100 38 46z"></path>
<path d="M3386 3091 c-8 -12 3 -41 15 -41 12 0 12 37 0 45 -5 3 -12 1 -15 -4z"></path>
<path d="M2270 3065 c0 -8 5 -15 10 -15 6 0 10 7 10 15 0 8 -4 15 -10 15 -5 0
-10 -7 -10 -15z"></path>
<path d="M3230 3035 c0 -25 5 -45 10 -45 6 0 10 7 10 16 0 9 9 18 20 21 11 3
20 9 20 14 0 5 -9 9 -20 9 -11 0 -20 7 -20 15 0 8 -4 15 -10 15 -5 0 -10 -20
-10 -45z"></path>
<path d="M2700 3040 c0 -5 5 -10 10 -10 6 0 10 5 10 10 0 6 -4 10 -10 10 -5 0
-10 -4 -10 -10z"></path>
<path d="M3345 3030 c-3 -4 -5 -82 -6 -174 -2 -151 -4 -168 -21 -177 -24 -13
-23 -32 2 -24 18 6 20 2 20 -39 0 -51 -14 -96 -30 -96 -6 0 -9 3 -7 8 7 11
-11 52 -23 52 -6 0 -10 -43 -10 -117 l0 -118 33 -15 c29 -14 32 -20 35 -65 2
-27 8 -55 13 -61 7 -8 6 -14 -1 -19 -16 -10 -13 -202 3 -208 7 -3 34 -3 60 0
l47 6 0 48 c0 44 21 146 35 169 10 16 9 810 -1 820 -11 11 -143 20 -149 10z
m65 -391 c0 -6 7 -8 16 -5 25 10 34 -3 22 -29 -9 -19 -7 -29 5 -49 21 -31 2
-49 -20 -20 -8 10 -20 18 -27 17 -19 -4 -41 64 -26 82 15 18 30 19 30 4z m60
-393 c0 -3 -4 -8 -10 -11 -5 -3 -10 -1 -10 4 0 6 5 11 10 11 6 0 10 -2 10 -4z"></path>
<path d="M1227 3023 c-4 -3 -7 -52 -8 -107 -1 -103 -3 -109 -14 -43 -10 59
-23 43 -29 -35 -2 -40 -9 -100 -14 -133 -5 -33 -15 -99 -22 -147 -12 -81 -20
-102 -34 -79 -3 4 -11 48 -17 97 -6 49 -15 116 -19 149 -4 33 -13 103 -19 155
-17 140 -17 140 -95 137 -36 -2 -68 -5 -71 -8 -3 -3 0 -30 5 -60 10 -52 20
-116 40 -264 13 -95 25 -176 49 -330 11 -71 25 -168 32 -215 10 -77 20 -131
30 -169 2 -8 -6 -19 -17 -26 -12 -6 -29 -17 -39 -25 -14 -12 -19 -10 -39 15
-13 16 -26 24 -29 18 -3 -5 -5 -47 -4 -94 l3 -84 34 0 c47 -1 93 22 85 42 -8
22 15 49 26 31 12 -19 11 -126 -2 -150 -15 -29 -19 -129 -5 -153 7 -14 13
-133 16 -370 l5 -350 155 1 c209 2 222 5 287 70 29 29 53 61 53 71 0 11 5 24
11 30 6 6 13 57 16 114 6 133 6 132 39 117 25 -12 26 -15 21 -73 -3 -33 -13
-103 -23 -155 -9 -52 -17 -113 -18 -135 l-1 -40 76 -3 76 -3 17 68 c9 37 16
91 16 119 0 27 5 55 12 62 13 13 116 15 158 3 25 -7 29 -17 62 -181 l13 -65
83 -3 82 -3 0 31 c0 38 -25 122 -51 171 -10 20 -19 45 -19 55 -1 32 -33 63
-68 67 -42 5 -63 24 -42 37 26 17 56 11 80 -15 32 -34 54 -33 46 2 -4 16 -11
55 -16 88 -5 33 -16 96 -25 140 -9 44 -20 107 -26 140 -5 33 -14 83 -19 110
-4 28 -13 81 -19 119 -6 37 -13 72 -16 76 -2 4 -7 35 -9 68 l-5 61 67 3 c66 3
67 3 70 33 4 32 -10 88 -38 150 -10 22 -21 50 -25 62 -9 32 -54 66 -70 53 -9
-7 -16 -6 -24 4 -10 12 -9 17 7 25 27 14 58 3 71 -25 11 -25 26 -31 36 -14 4
6 0 43 -9 83 -8 39 -19 100 -25 135 -6 34 -15 88 -21 120 -14 80 -38 218 -50
277 -5 28 -13 72 -17 99 l-8 48 -100 1 -100 1 -7 -35 c-4 -19 -12 -64 -17
-101 -26 -162 -34 -204 -43 -225 -6 -11 -7 -26 -3 -33 4 -6 2 -33 -5 -59 -11
-46 -14 -49 -48 -54 -20 -2 -40 -2 -43 2 -4 3 -3 31 1 61 4 30 13 91 19 135 6
44 15 112 21 150 6 39 13 92 17 118 l6 48 -74 -3 -74 -3 -8 -60 c-4 -33 -12
-98 -18 -145 -24 -196 -34 -235 -54 -235 -16 0 -21 8 -23 35 -2 19 -8 39 -13
45 -5 5 -9 22 -9 37 0 15 -4 47 -10 70 -8 40 -20 109 -36 216 l-6 42 -62 0
c-35 0 -66 -3 -69 -7z m678 -370 c3 -32 10 -78 16 -103 16 -79 15 -142 -5
-173 -22 -32 -37 -25 -62 29 -17 35 -17 46 6 212 16 109 35 124 45 35z m-590
-223 c2 -22 11 -67 20 -102 9 -35 21 -90 25 -123 25 -168 30 -190 46 -202 23
-17 108 -17 122 0 10 12 18 60 42 247 13 102 31 157 57 171 18 9 25 9 38 -1
18 -15 20 -30 3 -30 -6 0 -20 -8 -30 -17 -18 -16 -18 -17 6 -37 24 -20 25 -24
16 -86 -5 -36 -16 -103 -25 -150 -25 -134 -28 -123 35 -127 93 -6 95 -5 113
91 10 47 17 96 17 110 0 26 0 26 85 26 80 0 85 -1 89 -22 15 -72 26 -127 31
-160 7 -43 18 -39 -120 -42 l-89 -1 -14 -65 c-7 -36 -17 -87 -22 -115 -5 -27
-16 -88 -26 -135 -9 -47 -16 -101 -15 -120 0 -30 -5 -58 -25 -119 -3 -11 -7
-11 -20 0 -12 10 -20 10 -35 1 -11 -7 -23 -10 -28 -8 -4 3 -11 87 -15 187 -8
189 -17 228 -64 284 -58 69 -159 103 -275 92 -83 -8 -94 0 -78 52 9 32 16 40
33 38 26 -3 36 21 11 30 -27 10 -32 22 -22 57 5 17 9 58 9 91 0 48 4 64 20 78
13 11 20 29 20 54 0 20 8 60 17 90 l17 54 14 -26 c7 -15 15 -44 17 -65z m45
-635 c55 -28 64 -62 68 -243 2 -90 1 -170 -2 -178 -5 -12 -13 -10 -46 11 -22
14 -45 23 -50 20 -21 -13 -9 -35 28 -51 70 -33 72 -36 72 -151 0 -162 -40
-227 -138 -221 l-47 3 -1 401 -1 401 31 10 c45 15 54 15 86 -2z m555 -182 c4
-16 11 -55 15 -88 5 -33 13 -94 20 -135 9 -66 9 -79 -7 -112 -10 -21 -21 -38
-25 -38 -11 0 -38 30 -54 62 -14 27 -14 40 1 142 9 61 19 130 22 154 6 48 18
54 28 15z m-247 -315 c2 -10 -2 -18 -9 -18 -7 0 -21 -7 -31 -16 -16 -15 -18
-15 -24 -1 -3 8 0 25 6 37 14 25 53 24 58 -2z"></path>
<path d="M1275 2291 c-6 -11 9 -23 19 -14 9 9 7 23 -3 23 -6 0 -12 -4 -16 -9z"></path>
<path d="M1270 2176 c0 -27 15 -42 25 -26 8 13 -3 50 -16 50 -5 0 -9 -11 -9
-24z"></path>
<path d="M1660 1925 c0 -14 -5 -34 -12 -44 -14 -23 -3 -60 14 -43 15 15 24
112 9 112 -6 0 -11 -11 -11 -25z"></path>
<path d="M1660 1682 c0 -39 19 -92 33 -92 11 0 9 38 -3 45 -5 3 -10 24 -10 46
0 21 -4 39 -10 39 -5 0 -10 -17 -10 -38z"></path>
<path d="M1275 1420 c4 -6 11 -8 16 -5 14 9 11 15 -7 15 -8 0 -12 -5 -9 -10z"></path>
<path d="M1294 1146 c-8 -22 3 -33 18 -18 9 9 9 15 0 24 -9 9 -13 7 -18 -6z"></path>
<path d="M2185 3019 c-8 -11 4 -1029 11 -1041 3 -4 34 -8 70 -8 68 0 79 -10
40 -35 -54 -35 -106 -154 -106 -239 0 -52 23 -128 54 -180 14 -23 77 -93 140
-156 64 -63 116 -120 116 -127 0 -21 -27 -15 -33 8 -13 50 -23 2 -21 -103 3
-103 5 -113 23 -122 31 -14 26 -36 -9 -36 -70 0 -104 38 -116 129 -5 43 -10
51 -23 45 -9 -4 -38 -10 -66 -13 -73 -10 -78 -14 -70 -75 9 -67 49 -139 102
-186 38 -33 52 -39 121 -47 44 -6 84 -7 94 -2 9 5 26 9 38 9 52 0 141 85 167
159 15 44 17 172 2 224 -12 45 -101 179 -132 200 -12 8 -44 37 -72 63 l-50 49
-11 98 c-14 124 -40 161 -30 45 3 -43 2 -78 -2 -78 -41 1 -69 119 -40 173 18
34 40 46 84 47 43 0 74 -22 74 -54 0 -9 7 -31 16 -48 14 -27 19 -29 47 -24 18
4 51 9 75 13 48 7 57 14 44 40 -5 10 -18 44 -27 75 -14 44 -30 68 -64 100
l-46 43 53 3 c44 3 52 6 48 20 -2 9 -14 58 -26 107 -11 50 -25 106 -30 125
-25 92 -50 195 -50 208 0 8 12 31 28 51 43 57 49 73 63 154 10 63 10 91 -1
159 -19 119 -50 170 -123 206 -35 17 -68 21 -199 26 -102 4 -159 2 -163 -5z
m292 -171 c35 -38 43 -64 43 -131 0 -116 -40 -171 -122 -165 l-43 3 -3 95 c-4
107 13 156 55 166 16 4 22 11 19 21 -14 37 21 44 51 11z m-61 -446 c5 -4 23
-61 38 -127 15 -66 31 -131 36 -145 14 -42 33 -140 29 -144 -2 -2 -40 -5 -84
-7 l-80 -4 -3 204 c-2 142 1 208 9 217 12 15 38 18 55 6z"></path>
<path d="M2766 3022 c-3 -5 -6 -238 -6 -517 -1 -517 0 -535 36 -535 9 0 14
-11 14 -30 0 -27 -3 -30 -30 -30 -16 0 -30 -4 -30 -10 0 -5 9 -10 19 -10 11 0
23 -6 28 -12 4 -7 10 -247 13 -533 l5 -520 80 0 80 0 3 114 c1 63 6 120 11
125 4 6 6 27 4 46 -2 19 -6 79 -9 132 l-6 98 91 0 c91 0 92 0 102 -27 8 -20 7
-33 -1 -47 -11 -17 -9 -48 7 -129 4 -26 3 -28 -15 -23 -11 4 -23 2 -27 -4 -5
-8 -11 -8 -21 1 -25 21 -29 0 -6 -39 11 -20 38 -47 59 -59 38 -22 44 -41 17
-56 -8 -4 -14 -21 -14 -37 0 -27 -3 -30 -33 -30 -18 0 -38 -5 -45 -12 -9 -9
-16 -7 -31 6 -11 10 -25 15 -30 11 -19 -11 -12 -34 14 -51 17 -11 25 -25 25
-44 0 -32 25 -59 41 -43 7 7 7 17 -2 31 -10 16 -10 26 -1 46 14 31 33 33 57 6
15 -17 31 -20 97 -20 l78 0 0 130 c0 162 5 175 73 183 28 4 55 11 60 16 12 12
-19 94 -44 117 -11 9 -19 23 -19 31 0 7 -7 13 -16 13 -16 0 -16 -11 1 -67 5
-16 3 -25 -9 -29 -23 -9 -47 15 -45 45 1 14 1 180 1 369 l-2 342 -35 0 c-37 0
-62 28 -51 57 3 8 -1 24 -9 36 -8 12 -15 30 -15 41 0 11 -4 33 -9 50 -5 17
-17 60 -26 96 -9 36 -20 79 -25 95 -21 76 -21 101 1 121 32 29 56 83 69 155 6
35 17 91 24 124 15 74 13 180 -4 200 -19 22 -35 3 -19 -22 7 -11 9 -29 5 -39
-6 -16 -11 -12 -35 26 -34 54 -66 83 -106 98 -39 14 -331 26 -339 14z m275
-162 c34 -19 49 -64 49 -150 0 -117 -31 -162 -110 -157 l-45 2 -3 103 c-2 91
0 106 18 132 12 17 28 30 36 30 9 0 14 8 13 18 -3 36 6 41 42 22z m-35 -495
c7 -22 14 -50 14 -62 0 -12 4 -32 9 -45 14 -37 32 -112 58 -243 7 -36 12 -40
43 -45 l35 -5 0 -230 0 -230 -92 -3 -93 -3 -2 238 -3 238 -22 3 -23 3 0 208
c0 114 3 211 7 215 4 4 18 6 31 4 18 -2 28 -13 38 -43z"></path>
<path d="M3006 2071 c-4 -5 -2 -12 3 -15 5 -4 12 -2 15 3 4 5 2 12 -3 15 -5 4
-12 2 -15 -3z"></path>
<path d="M3720 3014 c-19 -8 -50 -29 -68 -47 -31 -30 -40 -46 -71 -120 -7 -17
-11 -95 -11 -202 0 -129 -3 -175 -12 -179 -10 -5 -10 -7 0 -12 15 -7 16 -46 0
-62 -9 -9 -9 -15 0 -24 10 -10 30 5 92 67 l80 80 0 161 0 162 31 26 c78 66
146 -9 137 -150 -4 -66 6 -81 32 -49 7 8 19 15 27 15 16 0 11 -29 -11 -65 -32
-50 -56 -138 -56 -201 0 -48 -3 -65 -12 -61 -7 2 -13 16 -13 30 0 30 -18 38
-23 10 -2 -10 -10 -32 -18 -50 -21 -46 -29 -93 -15 -93 6 0 11 -4 11 -10 0 -5
-7 -10 -16 -10 -9 0 -14 -6 -11 -12 4 -13 9 -14 53 -17 12 0 25 -8 28 -17 4
-12 2 -15 -9 -10 -8 3 -15 2 -15 -2 0 -4 -11 -12 -25 -19 -21 -9 -25 -9 -23 2
2 8 -1 14 -7 14 -5 1 -10 -3 -10 -8 0 -5 -3 -13 -7 -17 -11 -11 -10 -69 3
-120 11 -43 13 -44 50 -44 79 0 155 54 199 141 19 36 20 61 20 379 l0 341 -26
55 c-40 85 -120 134 -216 134 -29 -1 -69 -8 -88 -16z m175 -755 c8 -37 6 -39
-25 -22 -20 10 -21 13 -7 13 14 0 17 5 12 20 -3 11 -2 20 4 20 5 0 12 -14 16
-31z"></path>
<path d="M4090 3028 c0 -2 0 -239 -1 -527 l-1 -524 81 -3 81 -2 2 216 3 217
27 3 c38 5 42 -5 78 -173 16 -76 52 -220 61 -242 8 -21 15 -23 89 -23 81 0 88
4 71 38 -8 14 -47 165 -82 317 -17 71 -22 127 -12 134 18 12 52 69 67 112 23
65 21 230 -3 296 -47 129 -86 149 -303 158 -87 3 -158 4 -158 3z m291 -187
c28 -28 29 -33 29 -121 0 -132 -30 -175 -116 -168 l-39 3 -3 102 c-3 113 8
146 56 164 19 7 22 12 13 23 -6 7 -8 16 -4 19 13 14 35 6 64 -22z"></path>
<path d="M3537 2963 c-7 -12 14 -73 25 -73 4 0 8 10 8 23 0 28 -24 64 -33 50z"></path>
<path d="M1680 2685 c0 -8 5 -15 10 -15 6 0 10 7 10 15 0 8 -4 15 -10 15 -5 0
-10 -7 -10 -15z"></path>
<path d="M3785 2654 c-9 -14 -15 -33 -13 -42 4 -24 48 -26 76 -4 18 14 21 22
14 41 -12 34 -56 37 -77 5z"></path>
<path d="M5797 2564 c-4 -4 2 -19 12 -33 28 -40 85 -169 106 -241 31 -106 38
-178 25 -243 -30 -142 -72 -206 -269 -410 -80 -84 -159 -167 -174 -185 -52
-65 -31 -145 73 -276 74 -93 108 -113 161 -96 97 32 243 251 338 505 13 33 26
67 30 75 4 8 16 42 25 75 10 33 23 73 29 89 6 15 10 87 10 160 -1 115 -4 139
-26 198 -43 113 -106 195 -245 316 -88 77 -85 75 -95 66z"></path>
<path d="M3770 2486 c-121 -104 -194 -204 -237 -321 -14 -40 -18 -79 -17 -190
0 -129 3 -147 31 -230 100 -292 230 -540 324 -619 46 -39 95 -59 125 -52 46
12 157 139 194 223 44 100 32 120 -204 363 -170 175 -213 236 -242 345 -18 72
-18 137 2 222 18 78 67 209 101 270 47 85 32 82 -77 -11z"></path>
<path d="M4848 1928 c2 -40 8 -77 12 -81 4 -5 17 5 29 21 l21 30 -27 51 c-15
28 -31 51 -34 51 -3 0 -4 -33 -1 -72z"></path>
<path d="M4797 1983 c-2 -5 -9 -27 -17 -51 -11 -35 -11 -46 0 -67 25 -47 40
-31 40 44 0 61 -11 97 -23 74z"></path>
<path d="M3386 1941 c-4 -5 -2 -12 3 -15 5 -4 12 -2 15 3 4 5 2 12 -3 15 -5 4
-12 2 -15 -3z"></path>
<path d="M3382 1869 c1 -13 8 -23 13 -21 15 3 12 35 -3 40 -9 3 -13 -3 -10
-19z"></path>
<path d="M3376 1791 c-7 -11 14 -51 27 -51 5 0 7 12 5 27 -3 28 -22 41 -32 24z"></path>
<path d="M4780 1770 c0 -5 25 -10 55 -10 30 0 55 5 55 10 0 6 -25 10 -55 10
-30 0 -55 -4 -55 -10z"></path>
<path d="M917 1744 c-4 -4 -7 -18 -7 -31 0 -28 23 -27 28 1 4 20 -11 40 -21
30z"></path>
<path d="M4695 1733 c-91 -8 -228 -49 -330 -100 -111 -55 -185 -109 -185 -133
0 -11 3 -20 6 -20 3 0 34 20 69 45 63 45 228 128 275 138 14 3 56 13 95 21 82
19 340 22 413 5 63 -14 123 -30 147 -39 59 -22 183 -87 240 -126 35 -24 67
-44 70 -44 3 0 5 8 5 19 0 12 -26 36 -77 69 -107 69 -215 116 -354 152 -40 10
-295 19 -374 13z"></path>
<path d="M4433 1715 c-3 -9 -3 -18 -1 -20 8 -9 68 17 62 26 -9 15 -54 10 -61
-6z"></path>
<path d="M5180 1721 c0 -13 58 -32 65 -20 4 5 3 14 0 19 -8 12 -65 13 -65 1z"></path>
<path d="M4685 1670 c-11 -5 -33 -9 -49 -9 -98 -3 -415 -156 -416 -201 0 -8 4
-30 10 -49 21 -73 -32 -182 -141 -293 -63 -64 -68 -67 -120 -70 -53 -3 -54 -3
-57 -37 -3 -33 -3 -34 27 -28 36 8 146 14 516 28 154 6 282 15 285 19 3 5 3
151 0 326 -5 342 -4 336 -55 314z"></path>
<path d="M4890 1670 c0 -5 5 -10 11 -10 5 0 7 5 4 10 -3 6 -8 10 -11 10 -2 0
-4 -4 -4 -10z"></path>
<path d="M4937 1674 c-4 -4 -7 -152 -7 -329 l0 -322 163 -7 c89 -4 268 -11
398 -16 129 -5 243 -12 251 -15 23 -9 32 13 17 41 -10 20 -20 24 -57 24 -42 0
-49 4 -111 68 -71 73 -137 176 -147 230 -4 19 -1 51 6 73 12 36 12 41 -6 57
-21 19 -131 92 -139 92 -2 0 -28 11 -57 23 -82 37 -156 60 -224 71 -18 3 -42
8 -56 11 -13 3 -27 3 -31 -1z"></path>
<path d="M4807 1655 c-19 -18 -13 -41 13 -55 24 -13 52 14 48 44 -4 26 -40 33
-61 11z"></path>
<path d="M4216 1601 c-10 -10 -13 -22 -8 -25 12 -7 54 23 47 35 -9 14 -20 11
-39 -10z"></path>
<path d="M5416 1611 c-8 -12 42 -44 55 -35 7 4 4 13 -7 25 -18 20 -39 25 -48
10z"></path>
<path d="M4876 1589 c-23 -23 -59 -25 -76 -4 -19 23 -30 8 -30 -44 0 -57 6
-65 34 -46 28 20 52 19 75 -4 11 -11 22 -17 25 -13 9 8 7 132 -1 131 -5 0 -17
-9 -27 -20z"></path>
<path d="M2590 1555 c0 -8 5 -15 10 -15 6 0 10 7 10 15 0 8 -4 15 -10 15 -5 0
-10 -7 -10 -15z"></path>
<path d="M2542 1514 c4 -21 22 -23 26 -1 2 10 -3 17 -13 17 -10 0 -15 -6 -13
-16z"></path>
<path d="M2596 1491 c-4 -7 -5 -15 -2 -18 9 -9 19 4 14 18 -4 11 -6 11 -12 0z"></path>
<path d="M4803 1464 c-9 -24 10 -49 38 -49 20 0 24 5 24 30 0 25 -4 30 -28 33
-18 2 -29 -2 -34 -14z"></path>
<path d="M3385 1420 c-4 -6 -3 -16 3 -22 6 -6 12 -6 17 2 4 6 3 16 -3 22 -6 6
-12 6 -17 -2z"></path>
<path d="M3617 1413 c-13 -12 -7 -50 8 -63 27 -22 39 2 21 39 -18 33 -19 35
-29 24z"></path>
<path d="M4880 1405 c-14 -17 -80 -21 -80 -5 0 6 -7 10 -15 10 -12 0 -15 -13
-15 -55 0 -41 4 -55 14 -55 8 0 18 5 21 10 9 15 61 12 75 -5 23 -28 30 -16 30
50 0 66 -7 78 -30 50z"></path>
<path d="M2208 1404 c-4 -3 -3 -17 3 -31 5 -13 9 -35 9 -49 0 -34 31 -61 80
-69 71 -12 71 6 0 82 -63 67 -80 80 -92 67z"></path>
<path d="M3505 1290 c-3 -5 1 -10 10 -10 9 0 13 5 10 10 -3 6 -8 10 -10 10 -2
0 -7 -4 -10 -10z"></path>
<path d="M4810 1285 c-20 -25 -8 -50 25 -50 21 0 31 5 33 18 4 21 -14 47 -33
47 -7 0 -18 -7 -25 -15z"></path>
<path d="M4882 1219 c-13 -20 -66 -27 -77 -9 -3 6 -13 10 -21 10 -10 0 -14
-13 -14 -48 0 -58 6 -66 34 -47 28 20 50 19 71 -5 29 -32 35 -24 35 44 0 69
-9 86 -28 55z"></path>
<path d="M3524 1166 c-8 -22 3 -33 18 -18 9 9 9 15 0 24 -9 9 -13 7 -18 -6z"></path>
<path d="M3020 1121 c0 -12 26 -32 33 -25 9 10 -4 34 -19 34 -8 0 -14 -4 -14
-9z"></path>
<path d="M4812 1098 c-21 -21 -14 -47 14 -54 33 -8 48 7 40 40 -7 28 -33 35
-54 14z"></path>
<path d="M3380 1080 c0 -5 7 -10 15 -10 8 0 15 5 15 10 0 6 -7 10 -15 10 -8 0
-15 -4 -15 -10z"></path>
<path d="M3867 1084 c-4 -4 -7 -18 -7 -30 0 -13 -4 -26 -10 -29 -15 -9 -12
-45 4 -45 18 0 32 19 38 52 5 29 -12 65 -25 52z"></path>
<path d="M3440 1070 c0 -5 5 -10 10 -10 6 0 10 5 10 10 0 6 -4 10 -10 10 -5 0
-10 -4 -10 -10z"></path>
<path d="M5784 1070 c-8 -8 -8 -21 1 -45 14 -43 20 -49 41 -41 12 4 13 10 6
19 -6 6 -12 25 -14 41 -3 32 -18 42 -34 26z"></path>
<path d="M936 1053 c-11 -11 -6 -23 9 -23 8 0 15 4 15 9 0 13 -16 22 -24 14z"></path>
<path d="M4885 1040 c-8 -13 4 -32 16 -25 12 8 12 35 0 35 -6 0 -13 -4 -16
-10z"></path>
<path d="M3395 1029 c-4 -6 -5 -13 -2 -16 7 -7 27 6 27 18 0 12 -17 12 -25 -2z"></path>
<path d="M4772 1029 c2 -6 8 -10 13 -10 5 0 11 4 13 10 2 6 -4 11 -13 11 -9 0
-15 -5 -13 -11z"></path>
<path d="M4685 954 c-22 -1 -182 -8 -355 -14 -391 -14 -490 -23 -507 -47 -18
-24 -18 -326 0 -340 18 -15 99 -24 317 -34 552 -26 1121 -22 1558 13 115 9
145 14 155 28 9 13 11 62 7 180 l-5 164 -30 8 c-59 16 -1024 52 -1140 42z"></path>
<path d="M3396 862 c-3 -6 -1 -14 5 -17 15 -10 25 3 12 16 -7 7 -13 7 -17 1z"></path>
<path d="M3447 863 c-12 -11 -8 -23 8 -23 8 0 15 7 15 15 0 16 -12 20 -23 8z"></path>
<path d="M3520 824 c0 -9 5 -14 12 -12 18 6 21 28 4 28 -9 0 -16 -7 -16 -16z"></path>
</g>
</svg>