<?xml version="1.0" standalone="no"?>
<!DOCTYPE svg PUBLIC "-//W3C//DTD SVG 20010904//EN"
 "http://www.w3.org/TR/2001/REC-SVG-20010904/DTD/svg10.dtd">
<svg version="1.0" xmlns="http://www.w3.org/2000/svg"
 width="308.000000pt" height="164.000000pt" viewBox="0 0 308.000000 164.000000"
 preserveAspectRatio="xMidYMid meet">
<metadata>
Created by potrace 1.15, written by Peter Selinger 2001-2017
</metadata>
<g transform="translate(0.000000,164.000000) scale(0.100000,-0.100000)"
fill="#000000" stroke="none">
<path d="M0 820 l0 -820 1540 0 1540 0 0 820 0 820 -1540 0 -1540 0 0 -820z
m1140 540 c5 0 13 6 17 13 5 8 31 13 78 12 60 0 70 2 67 17 -5 31 15 28 47 -7
35 -39 43 -42 61 -20 7 8 20 15 29 15 9 0 25 7 35 15 31 24 59 18 90 -20 23
-27 32 -32 47 -25 23 13 76 16 117 6 21 -5 32 -4 32 3 0 7 25 11 65 11 64 0
65 0 65 27 l0 27 40 -39 c38 -37 40 -38 59 -21 16 14 23 15 41 6 12 -6 32 -9
45 -6 29 7 60 -34 51 -70 -6 -23 -23 -29 -67 -26 -14 1 -16 -8 -12 -62 4 -50
1 -72 -16 -110 l-21 -48 25 -98 c14 -54 25 -106 25 -114 0 -14 -20 -16 -149
-16 -95 0 -151 4 -153 10 -2 7 -15 6 -37 -3 l-33 -14 65 -69 66 -69 16 23 c10
14 27 22 45 22 18 0 34 8 44 22 13 18 27 22 82 25 73 3 95 13 75 37 -16 19 21
96 47 96 22 0 56 -78 42 -95 -18 -22 17 -38 81 -38 53 0 63 -3 76 -24 11 -16
25 -23 49 -23 22 0 38 -7 47 -20 13 -19 16 -17 74 43 81 84 96 115 91 191 -3
44 -14 84 -42 144 -22 45 -37 84 -34 87 10 10 144 -102 169 -142 60 -90 65
-187 19 -314 -31 -86 -80 -180 -110 -214 -17 -19 -17 -23 -3 -60 22 -55 29
-194 11 -218 -12 -16 -38 -20 -168 -29 -203 -13 -711 -4 -748 14 -26 13 -27
17 -30 102 -2 48 1 93 6 99 24 30 22 67 -4 107 -15 22 -30 37 -35 34 -15 -9
-10 -48 10 -73 15 -19 16 -32 10 -67 -15 -78 -38 -100 -99 -95 -17 2 -32 -7
-52 -31 l-27 -33 -1 33 c0 27 -4 32 -24 32 -20 0 -25 -6 -28 -30 l-3 -30 -45
30 c-34 23 -56 30 -93 30 -26 0 -56 5 -67 12 -16 10 -23 9 -46 -12 -15 -14
-28 -20 -31 -15 -12 33 -19 35 -76 25 -31 -6 -85 -10 -119 -8 -57 3 -63 5 -66
26 -4 29 -18 28 -38 -3 -14 -22 -23 -25 -78 -25 -33 0 -79 5 -101 10 -25 6
-44 5 -51 -1 -7 -5 -45 -9 -86 -7 l-73 3 -3 48 -3 47 -40 0 c-21 0 -39 3 -39
8 0 18 43 75 61 79 18 5 20 13 17 87 -3 79 -4 81 -30 84 -32 4 -36 19 -37 123
-1 68 2 79 24 103 14 15 25 31 25 35 0 5 -13 98 -30 207 -16 109 -26 202 -21
207 4 4 129 9 277 10 l269 2 6 -30 6 -30 4 35 4 35 63 3 c52 2 62 6 62 21 0
33 14 32 48 -4 18 -19 37 -35 42 -35z"/>
<path d="M983 1332 l-23 -3 0 -230 0 -229 37 0 36 0 -20 -22 c-31 -35 -43 -63
-43 -103 0 -49 12 -69 84 -144 33 -35 53 -61 44 -58 -16 6 -18 0 -18 -41 0
-27 5 -53 12 -60 9 -9 7 -12 -9 -12 -24 0 -38 15 -47 51 -5 24 -9 26 -38 20
-18 -4 -33 -12 -32 -19 1 -7 2 -20 3 -29 3 -35 45 -75 86 -82 58 -11 102 4
125 42 42 68 16 163 -64 234 -25 21 -36 40 -37 60 0 24 -2 25 -8 8 -8 -19 -9
-18 -21 8 -10 21 -11 33 -2 52 16 35 57 34 74 -2 11 -23 19 -27 43 -25 17 2
31 5 32 6 8 7 -20 73 -39 93 l-21 23 21 0 c27 0 27 -5 -2 107 -21 82 -22 94
-9 113 40 56 39 161 -2 208 -18 21 -34 27 -81 32 -33 3 -69 4 -81 2z"/>
<path d="M1482 1332 c-8 -2 -12 -29 -12 -78 0 -43 -4 -74 -10 -74 -5 0 -10 -5
-10 -11 0 -5 5 -7 10 -4 6 4 10 -6 10 -24 0 -16 -5 -33 -12 -37 -6 -4 -8 -3
-4 4 3 6 2 13 -4 17 -16 10 -12 -86 4 -99 16 -12 19 -33 17 -108 -1 -39 -4
-48 -19 -48 -15 0 -23 19 -41 96 l-23 96 21 42 c23 48 40 179 23 190 -6 4 -8
-2 -4 -16 4 -19 -1 -16 -30 15 -35 36 -37 37 -109 37 l-74 0 2 -226 c1 -163 5
-230 14 -241 10 -12 10 -16 0 -23 -9 -5 -10 -10 -2 -14 8 -5 11 -80 11 -237
l0 -229 35 0 35 0 2 58 c1 31 0 83 -1 115 l-3 58 43 -3 43 -3 1 -47 c2 -44 -4
-53 -27 -49 -14 2 -8 -10 17 -33 41 -38 18 -75 -42 -67 -7 1 -13 -3 -13 -9 0
-5 5 -10 10 -10 6 0 10 -6 10 -14 0 -8 5 -18 11 -22 7 -4 9 0 5 14 -8 24 11
39 27 23 6 -6 26 -11 44 -11 l33 0 0 58 c0 54 9 85 24 83 30 -4 37 0 31 22 -9
27 -39 61 -33 37 1 -8 -2 -16 -7 -18 -6 -1 -11 60 -13 163 l-2 165 23 0 c21 0
25 7 35 63 12 64 15 133 13 298 -1 92 -2 97 -24 101 -12 2 -28 3 -35 0z m-141
-367 c14 -63 26 -95 35 -95 11 0 14 -23 14 -105 l0 -105 -40 0 -40 0 0 105 c0
63 -4 105 -10 105 -6 0 -10 38 -10 95 0 76 3 95 14 95 10 0 21 -30 37 -95z"/>
<path d="M390 1318 c0 -7 15 -113 34 -236 32 -215 32 -223 15 -233 -13 -6 -19
-6 -19 1 0 5 -4 10 -10 10 -5 0 -10 -18 -10 -40 0 -28 4 -40 14 -40 23 0 46
11 41 20 -3 5 -1 12 5 15 8 5 10 -15 8 -62 -1 -37 -2 -142 0 -232 l2 -164 86
5 c75 4 88 7 111 31 21 21 28 38 31 87 3 45 8 60 20 60 15 0 14 -33 -4 -143
-7 -37 -7 -37 29 -37 38 0 47 14 47 77 0 39 7 44 53 36 33 -5 37 -9 43 -42 11
-68 13 -71 50 -71 40 0 43 15 18 82 -18 45 -41 71 -55 62 -5 -3 -9 0 -9 5 0
15 33 14 49 -2 11 -10 12 -6 7 18 -18 96 -56 315 -56 329 0 11 9 16 30 16 35
0 36 8 14 73 -16 46 -44 83 -44 57 0 -8 -3 -11 -6 -7 -3 3 -3 11 1 17 5 8 13
6 26 -6 18 -16 19 -16 18 2 0 10 -13 87 -28 169 l-27 150 -44 0 -45 0 -12 -65
c-13 -70 -21 -118 -22 -136 -1 -15 -41 -26 -41 -11 0 7 7 55 15 107 8 52 15
99 15 103 0 5 -15 7 -32 5 l-33 -3 -12 -88 c-17 -133 -27 -132 -51 2 -15 89
-16 91 -44 91 -27 0 -28 -2 -29 -47 0 -34 -3 -42 -8 -28 -5 13 -12 -11 -21
-78 -8 -54 -17 -94 -20 -90 -4 5 -12 53 -19 108 -16 133 -17 135 -52 135 -17
0 -29 -5 -29 -12z m191 -260 c34 -192 29 -178 64 -178 l32 0 11 78 c7 42 13
82 14 89 2 15 26 25 33 14 3 -5 -3 -12 -13 -16 -15 -6 -15 -7 -1 -15 14 -8 15
-17 4 -82 -14 -78 -10 -88 30 -80 19 3 25 12 30 52 7 48 7 48 48 52 l42 3 3
-52 2 -53 -44 0 c-53 0 -46 17 -81 -195 -1 -5 -3 -19 -3 -30 -2 -14 -10 -20
-27 -21 -25 -2 -25 -1 -25 78 0 125 -36 168 -139 168 -44 0 -49 2 -44 20 3 11
8 20 12 20 3 0 4 25 3 55 -3 35 0 55 7 55 6 0 11 10 11 23 0 30 11 69 18 62 3
-2 9 -24 13 -47z m25 -272 c16 -12 20 -29 23 -101 l3 -86 -28 6 -29 6 28 -16
c23 -14 27 -22 27 -63 0 -62 -18 -96 -53 -100 l-27 -3 0 181 c0 161 2 181 16
176 8 -3 12 -2 9 4 -9 15 8 12 31 -4z"/>
<path d="M1611 1304 c-17 -14 -31 -32 -31 -40 0 -8 -3 -14 -7 -14 -5 0 -7 -39
-6 -87 1 -49 2 -97 3 -107 0 -17 5 -15 35 14 34 33 35 37 35 105 0 73 10 95
41 95 21 0 43 -52 34 -80 -6 -19 -4 -21 14 -15 l21 6 -20 -43 c-11 -24 -20
-59 -20 -78 -1 -27 -3 -31 -9 -16 -7 18 -9 16 -19 -14 -15 -42 -15 -40 6 -41
14 0 14 -2 -3 -9 -16 -7 -17 -9 -3 -9 9 -1 20 -7 24 -13 4 -7 4 -10 -1 -6 -4
4 -15 2 -23 -5 -13 -9 -14 -9 -8 1 4 6 2 12 -3 12 -18 0 -13 -80 4 -86 22 -9
72 14 90 42 22 33 22 321 0 364 -29 57 -102 68 -154 24z"/>
<path d="M1798 1133 c-4 -269 -5 -263 38 -263 l34 0 0 95 c0 77 3 95 15 95 14
0 18 -12 48 -130 13 -53 14 -55 49 -58 l36 -3 -25 97 -24 98 20 37 c23 41 28
116 10 168 -15 43 -54 61 -133 61 l-65 0 -3 -197z"/>
<path d="M2569 1092 c12 -23 28 -69 37 -102 14 -55 14 -66 -1 -116 -13 -47
-30 -70 -99 -142 -102 -106 -108 -118 -91 -158 16 -39 73 -104 91 -104 27 0
83 63 122 138 121 232 109 375 -39 493 l-41 32 21 -41z"/>
<path d="M1641 1075 c-69 -64 -95 -122 -94 -205 2 -142 133 -400 203 -400 28
0 100 94 100 130 0 22 -20 50 -88 122 -131 139 -148 203 -87 336 14 30 23 57
21 60 -3 2 -27 -17 -55 -43z"/>
<path d="M1973 740 c-29 -10 -63 -26 -75 -34 -27 -19 -42 -21 -32 -3 4 7 3 9
-2 4 -5 -5 -9 -12 -9 -15 0 -4 -4 -13 -9 -20 -5 -8 -4 -18 3 -25 41 -41 -40
-187 -104 -187 -15 0 -25 -6 -25 -14 0 -15 -1 -15 263 0 l107 6 0 144 0 145
-37 -7 c-51 -9 -130 -41 -165 -66 -16 -11 -31 -18 -34 -15 -9 9 84 59 147 78
116 36 255 18 359 -46 58 -35 82 -38 40 -3 -17 14 -19 18 -7 14 11 -4 16 -2
12 5 -4 6 -13 8 -21 5 -7 -3 -39 7 -71 22 -51 23 -72 27 -173 29 -93 2 -125
-1 -167 -17z"/>
<path d="M2170 596 l0 -144 118 -6 c64 -3 148 -8 185 -10 72 -4 88 11 30 26
-45 12 -107 98 -107 151 -1 37 -5 41 -51 68 -46 27 -72 36 -147 53 l-28 6 0
-144z"/>
<path d="M1830 410 c-63 -4 -123 -8 -132 -9 -16 -1 -18 -12 -18 -80 l0 -80 48
-8 c62 -10 721 -10 795 0 l57 8 0 78 0 78 -37 7 c-61 10 -588 15 -713 6z"/>
</g>
</svg>
